<svg version="1" xmlns="http://www.w3.org/2000/svg" width="1365.333" height="1365.333" viewBox="0 0 1024.000000 1024.000000"><path d="M702.5 158.9c-12 4.3-20.3 10.7-26.7 20.5-6.4 9.9-7.8 16.2-7.8 35.3v16.4l5.8-.3 5.7-.3.5-16c.5-15.4.6-16.3 3.7-22.7 3.9-8.2 10-14.5 17.9-18.4l5.9-2.9h181l6.7 3.3c10.9 5.3 18.4 15.6 20.8 28.2.7 3.5 1 105.1 1 296.7 0 325.8.6 299.7-7.1 311.2-4.2 6.3-7.7 9.4-14.9 13.2l-4.5 2.4h-185l-5.3-2.9c-6.8-3.8-13.6-11.2-17-18.4-2.6-5.5-2.7-6.4-3.2-27.7l-.5-22h-12l-.3 18c-.3 21.2.7 28.8 5.4 38.5 6.1 12.7 14.8 21.1 27.2 25.9l6.7 2.6 88.4.3c57.9.2 90.2-.1 93.9-.8 18.2-3.3 33.7-18.5 38.7-37.7 1.3-5 1.5-43 1.5-302.4 0-204.9-.3-298.2-1-301.5-2.4-10.4-7.5-19.6-15.1-27.2-5.5-5.4-10.6-8.4-18.8-11.1-6.3-2.1-7.9-2.1-96.5-2-83.8 0-90.4.2-95.1 1.8z"/><path d="M103.4 245.4c-7.8 2.5-13.9 7.9-18.5 16.6l-2.4 4.5v452l2.5 5c3.4 6.9 9.9 12.9 16.6 15.4 5.4 2.1 6.6 2.1 140.4 2.1 130 0 135 .1 135 1.8 0 1-1.1 7-2.4 13.3-1.4 6.3-4.1 19.5-6.1 29.4-2.1 9.9-4.1 19.7-4.6 21.7l-1 3.7-25.5.3c-24 .3-25.7.4-27 2.2-1.1 1.5-1.4 6-1.4 19.8 0 16.5.1 17.9 2 19.8 2 2 3.3 2 103.3 2h101.4l2.1-2.3c2.1-2.2 2.2-3.2 2.2-19.9 0-14.7-.3-17.9-1.6-19.2-.8-.9-1.6-1.7-1.7-1.8-.1-.1-11.7-.5-25.7-.8l-25.5-.5-1.3-6c-5.8-25.3-12.8-62.7-11.8-63.1.6-.2 62.1-.5 136.6-.6l135.5-.3 4.8-2.5c5.9-3 12.1-9.6 15-15.8l2.2-4.7v-450l-2.8-5.6c-3.5-7.3-9.8-13.1-17.1-15.8l-5.7-2.1-306.7.1c-245.5 0-307.5.3-310.8 1.3zm621.3 14.2c4.8 2.3 8.3 7.3 9.1 13.1.4 2.6.6 54.6.4 115.5l-.3 110.8h-9.4c-6.9 0-9.5-.3-9.5-1.3V405c0-54.1-.4-94.7-1-99.2-1.2-9.6-4.4-16.2-10.6-21.7-8.8-7.7 16.7-7.1-288.9-7.1-309.5 0-280.6-.8-290 8.1-3.1 2.9-6.3 7.2-7.6 10.2l-2.4 5.2-.3 189.5c-.2 144.9 0 190.6.9 194 2.7 10.2 8.7 17.7 17.4 21.6l5.2 2.4 277.4-.2 277.4-.3 4.5-2.3c10.1-5.3 15.4-13.4 17-26 .6-4.2.9-22.4.8-40.5-.1-24.2.1-33 1-33.9.9-.9 1.2-10.7 1.2-37.5V531h17l.1 62.7c.2 82.6 0 120.3-.7 122.8-.8 2.7-5.2 7.3-8.6 9.1-4.2 2.2-616.5 2.1-620.7-.1-3.9-2-7.8-6.9-9.1-11.3-1.3-4.8-1.4-436.9 0-442.6 1.1-4.8 3.6-8.4 8-11.4l3.3-2.2h307.4c283 0 307.8.1 311 1.6zm-32.9 32.5c2.6 1.3 5.4 3.8 7 6.2l2.7 4.1v196.8l-18.5.2-18.5.1v31l10.7.3 10.8.3.2 36.7.3 36.7 7.8.3 7.8.3-.3 38.8-.3 38.7-2.7 4.2c-1.6 2.3-4 4.9-5.5 5.9-2.6 1.7-16.1 1.8-278.9 1.8H138.2l-3.9-3.1c-8.1-6.6-7.8-4.3-8.1-55.3-.2-24.9-.1-46 .3-46.9.4-1.1 2.2.1 7 4.7 16.9 16.3 43.6 18.6 63.2 5.6 10.3-6.9 18.7-21 22-37.3 1.3-6.3 1.3-7.6.2-8.3-2.3-1.4-29.9-1.1-30.3.3-.2.7-.9 3.1-1.5 5.4-5.2 19.3-28.2 21.8-37.3 4-5-9.8-1.4-25.1 7.4-31.2 3.5-2.5 5.1-2.9 10.8-2.9 8.5 0 12.7 2.6 17.1 10.8l3 5.8 9.2-.6c15.8-1 21.7-1.6 22.2-2.5.8-1.2-2.4-10.9-6.1-18.5-6.2-12.7-18.7-23-31.4-25.9-18.6-4.3-35.1 0-48.4 12.5-3.5 3.2-6.6 5.9-6.9 5.9-.4 0-.5-47.8-.4-106.3l.2-106.2 2.1-4c2.6-4.8 4.8-6.9 9.4-8.9 3.1-1.3 35.7-1.5 276.4-1.6h273l4.4 2.1zM445.2 774c3.7 17.9 6.7 33.5 6.8 34.7v2.3h-37.4c-20.6 0-37.7-.3-37.9-.8-.3-.4 1.1-8.1 3-17.2 1.8-9.1 4.7-23.4 6.4-31.8 1.6-8.4 3.4-16.4 3.9-17.7l1-2.5 23.7.2 23.7.3 6.8 32.5zm62.3 59v7.5l-93.2.3-93.3.2v-16l93.3.2 93.2.3v7.5z"/><path d="M509 341c-2.3 2.3-2.5 4.5-.7 7.7.7 1.2 10.9 12.7 22.8 25.5 11.8 12.8 25.8 28 31 33.7 5.2 5.7 25.8 28.2 45.9 49.8 20.1 21.7 36.6 40 36.8 40.6.2.9-3.3 1.2-13 1.2h-13.3l-.5 36.1c-.5 33.8-.6 36.3-2.4 38.3-2.4 2.6-3.7 2.6-6.7.2l-2.4-1.9-.5-36.4-.5-36.3h-29l-.3 36.5c-.3 37.9.2 44.4 3.9 52.8 3.2 7.4 7.5 11.9 14.7 15.4 6.1 3 7.4 3.3 16.2 3.3 8.2-.1 10.3-.5 15.7-2.9 6.8-3.1 13.8-9.7 17.1-16.2 3.7-7.4 4.2-13.3 4.2-50.5v-36l2.2 1.5c2.9 2.1 6.1 2 8-.2 2.3-2.6 2.9-5.4 1.5-7.9-.7-1.2-11.6-13.3-24.3-27-29.4-31.7-47.7-51.5-58.4-63.3-17.5-19.3-58.3-63.5-59.8-64.8-2.3-1.8-5.9-1.5-8.2.8zM582 345c-2.3 2.3-2.5 5.1-.9 8.3.7 1.2 10.9 12.3 22.8 24.7 11.9 12.4 27.2 28.5 34 35.7 10 10.8 12.8 13.3 15.1 13.3 6.3 0 7.8-6.8 2.8-12.7-7.2-8.5-34.3-37.5-55.1-59.1-12.6-13-14.7-14.2-18.7-10.2zM278 497.7c-10.6 1.8-19.9 7.1-28.4 16.4-24.6 26.6-17.3 71.3 14.3 87.8 22.6 11.8 48.4 5.6 63.9-15.3 5.4-7.4 7.4-11.9 9.6-21.3 3-13.5 1.1-28.9-5.1-40.6-3.8-7.1-16.5-19.6-23.3-23-8.3-4.1-20.9-5.7-31-4zm14.9 32.3c4.3 1.2 9.6 6.2 12.3 11.5 3.1 5.9 2.9 15.9-.4 22.2-6.7 13.1-21.3 15.9-31.3 5.9-9.9-10-9.7-25.4.7-35.3 5.3-5.1 11.2-6.5 18.7-4.3zM377 498.5c-6.3 2-12 7.2-15.5 14.1l-3 5.9-.3 43.3-.3 43.3 14.8-.3 14.8-.3.5-36.5c.3-20.1.9-37.1 1.3-37.8 1.2-1.8 3.5-1.5 4.7.7.6 1.3 1 15.1 1 38V605h30l.1-35.3c.1-19.3.4-36.3.8-37.7.4-1.5 1.5-2.6 2.9-2.8 1.2-.2 2.3-.2 2.4 0 .1.2.5 17.2.8 37.8l.5 37.5h30v-42c-.1-41.7-.1-42-2.4-47.9-5.1-12.8-14.3-18.5-28.2-17.3-8.2.7-13.5 3.3-18.3 8.8l-3.6 4.2-4.1-4.7c-2.3-2.6-5.5-5.4-7.1-6.2-4.3-2.2-16.3-2.7-21.8-.9zM512.9 498.3c-10.1 2.9-19 10.1-23.4 19.1-3.8 7.8-4.6 17.8-4.3 54.1l.3 33h30l.3-36.4c.2-32.2.4-36.7 1.9-38.3 2.1-2.4 5.8-2.3 8.3.2 3.6 3.6 1.9 8.4-3.5 9.8l-3 .8-.3 14.4-.3 14.3 8.3-.5c10.5-.7 17.4-3.5 22.8-9.4 6.8-7.4 8.4-12.1 8.5-24.9 0-10.1-.2-11.5-2.8-16.7-3.6-7.4-10.7-14.5-17.7-17.6-6.5-3-18-3.9-25.1-1.9zM759.7 244.7c-.4.3-.7 3.3-.7 6.5v5.8h54.8c51.9 0 55-.1 56.5-1.8 2.3-2.5 2.1-6.8-.3-9.2-2-2-3.3-2-55.8-2-29.6 0-54.2.3-54.5.7zM759.7 300.7c-.4.3-.7 3.3-.7 6.5v5.8h54.8c51.9 0 55-.1 56.5-1.8 2.3-2.5 2.1-6.8-.3-9.2-2-2-3.3-2-55.8-2-29.6 0-54.2.3-54.5.7zM759.2 362.2l.3 6.3 54.2.3c53.2.2 54.3.2 56.3-1.8s2.6-5.6 1.2-7.6c-2.1-3.2-5.1-3.4-58.7-3.4h-53.6l.3 6.2zM778.8 500c-6.6 1.2-14.4 5.7-17.9 10.4-5.6 7.6-6 11.3-5.7 43.8l.3 29.3 2.8 5.8c3.2 6.4 7.2 10.1 14.4 13.1 4 1.6 7.7 2 22.1 2.4l17.2.4V574h-11.2c-6.2 0-12.3-.3-13.5-.6-2.7-.7-3.8-3.6-2.3-6.3.9-1.8 2.2-2.1 12.8-2.3l11.7-.3.3-12.3.3-12.2H800c-5.6 0-11-.5-12.1-1-2.1-1.2-2.6-5.4-.6-6.7.6-.4 6.4-1 12.7-1.3l11.5-.5v-31l-14-.1c-7.7-.1-16.1.2-18.7.6zM823.5 500c-.3.5 5 12.4 11.8 26.4l12.5 25.4-12.9 25.3c-7.1 14-12.9 26-12.9 26.6 0 1 3.6 1.3 15.1 1.3h15l2.3-5.3c1.3-2.8 3.4-7.8 4.7-11.1 1.3-3.2 2.8-5.7 3.4-5.5.5.2 2.9 4.4 5.2 9.4 2.3 4.9 4.7 9.8 5.3 10.7.9 1.6 2.8 1.8 16.5 1.8 8.5 0 15.5-.4 15.5-.9s-5.6-12.3-12.5-26.3-12.5-26.2-12.5-27c0-.9 5.4-12.3 12-25.3s12-24.3 12-25.1c0-1.2-2.6-1.4-15.2-1.2l-15.2.3-3.9 10.2c-2.2 5.7-4.4 10.3-4.9 10.3s-2.9-4.2-5.3-9.3c-2.4-5-4.9-9.8-5.5-10.5-1.3-1.5-29.5-1.7-30.5-.2z"/></svg>