<svg version="1" xmlns="http://www.w3.org/2000/svg" width="1365.333" height="1365.333" viewBox="0 0 1024.000000 1024.000000"><path d="M484.6 153.7c-.4.4-5.3 1.1-10.9 1.5-18.2 1.5-22.2 2-23.1 2.9-.6.5-2.7.9-4.8.9-2.1 0-3.8.3-3.8.7 0 .5-2.1.9-4.8 1.1-2.6.2-5.1.7-5.6 1.3-.6.5-2.5.9-4.2.9-1.8 0-3.6.4-3.9 1-.3.5-1.9 1-3.6 1-1.6 0-3.7.4-4.7.9-.9.5-3.7 1.4-6.2 2.1-2.5.7-5.3 1.6-6.2 2.1-1 .5-2.7.9-3.7.9-1.1 0-2.3.4-2.6 1-.3.5-1.7 1-3 1s-2.7.4-3 1c-.3.5-1.3 1-2.1 1s-3.4.9-5.6 2c-2.3 1.1-5 2-6 2s-1.8.4-1.8 1c0 .5-.9 1-1.9 1-1.1 0-2.3.4-2.6 1-.3.5-1.5 1-2.6 1-1 0-1.9.4-1.9 1 0 .5-.6 1-1.2 1-1.6 0-26.2 12.2-26.6 13.2-.2.5-1.2.8-2.3.8-1 0-1.9.4-1.9 1 0 .5-.6 1-1.3 1-.7 0-3.1 1.3-5.3 3-2.1 1.6-4.5 3-5.1 3-.7 0-1.3.4-1.3 1 0 .5-.7 1-1.5 1s-1.5.4-1.5 1c0 .5-.6 1-1.3 1-.7 0-2.3.9-3.5 2-1.2 1.1-2.6 2-3.2 2-.5 0-1 .4-1 1 0 .5-.7 1-1.5 1s-1.5.4-1.5 1c0 .5-.4 1-1 1-.9 0-1.8.7-7.3 5.3-1.2 1-3.4 2.6-4.9 3.5-1.6.9-2.8 2-2.8 2.4 0 .4-.6.8-1.3.8-.7 0-1.9.9-2.7 2-.8 1.1-1.7 2-2.1 2-.3 0-3 2.2-5.9 4.9-3 2.8-5.7 4.8-6.2 4.5-.4-.3-.8-.1-.8.4s-6 7-13.2 14.5c-15.5 15.8-18.1 18.6-22.8 24.7-1.9 2.5-3.9 5-4.5 5.6-.5.6-2.1 2.5-3.5 4.3-1.4 1.8-3.2 4-4 5.1-2.7 3.2-15.7 23.3-21.2 32.5-5.1 8.6-18.1 34.8-21.3 43-1.5 3.8-3.1 7.4-3.4 8-.4.5-1.8 4.4-3.1 8.5-1.4 4.1-2.7 7.7-3.1 8-.3.3-.9 1.8-1.2 3.5-.3 1.6-1.5 6.4-2.7 10.5-1.9 6.7-3.3 12-6 23-1.6 6.9-2.9 13.6-4 22-.6 4.7-1.6 11.2-2.1 14.5-1.5 10.6-2.1 47.3-1 63 1.8 24.6 5.2 46.5 10.2 65 .5 2.2 1.4 5.6 1.8 7.5 1.3 5.4 10 31 12.3 36 1.1 2.5 2.7 6.2 3.4 8.3 1.6 4.6 19.3 40 20.4 40.7.4.3 1.5 1.9 2.4 3.7.9 1.8 2.9 5.1 4.4 7.5 1.6 2.4 4.6 7 6.8 10.3 2.1 3.3 4.4 6.6 5.1 7.3.7.8 3.4 4.3 6 7.9 2.6 3.6 5.6 7.6 6.7 8.9 1.2 1.2 3.7 4.2 5.6 6.5 7.8 9.4 36.9 37.8 45 44 1.9 1.5 4.5 3.5 5.7 4.5 4.8 4.2 6.3 5.4 6.9 5.4.3 0 1.1.6 1.9 1.2 3 2.9 5.6 4.8 6.5 4.8.6 0 1 .4 1 1 0 .5.7 1 1.5 1s1.5.4 1.5 1c0 .5.6 1 1.3 1 .7 0 1.9.9 2.7 2 .8 1.1 2.2 2 3.2 2s1.8.4 1.8 1c0 .5.5 1 1.1 1 .6 0 3 1.3 5.4 3 2.4 1.6 4.8 3 5.4 3 .6 0 1.1.4 1.1.8 0 .5 1.6 1.4 3.5 2.2 1.9.8 3.5 1.7 3.5 2.2 0 .4.9.8 2 .8s2 .4 2 .8c0 .5 1.6 1.4 3.5 2.2 1.9.8 3.5 1.7 3.5 2.2 0 .4.6.8 1.4.8.8 0 4 1.3 7.1 3 3.1 1.6 6.3 3 7.1 3 .8 0 1.4.4 1.4 1 0 .5.7 1 1.5 1s2.3.4 3.3.9c2.2 1.1 7 3.1 15.2 6.4 1.4.5 3.3 1.3 4.2 1.8 1 .5 2.7.9 3.7.9 1.1 0 2.3.4 2.6 1 .3.5 1.9 1 3.6 1 1.6 0 2.9.4 2.9.9 0 .8 2.2 1.5 9.8 2.8 1.7.3 3.2.9 3.2 1.4 0 .5 1.5.9 3.4.9s3.8.4 4.1 1c.3.5 2.1 1 4 1s3.6.4 3.9.9c.5.8 4.7 1.6 14.1 2.7 2.2.3 4.9.9 6 1.4 2.2 1 9.1 1.9 21 2.6 4.4.2 8.9.9 10 1.5 1.3.6 12.6.8 30.5.5 26.3-.4 35.6-1 53-3.5 3.6-.6 8.8-1.3 11.5-1.6 2.8-.4 5.4-1.1 6-1.6.5-.5 2.6-.9 4.6-.9 2.1 0 4.1-.5 4.4-1 .3-.6 2.1-1 4-1s3.6-.4 3.9-.9c.3-.5 2.2-1.2 4.1-1.5 1.9-.3 5.1-.9 7-1.2 1.9-.3 3.8-1 4.1-1.5.3-.5 1.6-.9 2.9-.9 1.3 0 2.7-.4 3-1 .3-.5 1.6-1 2.9-1 1.2 0 2.6-.4 3.1-.8.6-.4 2.8-1.4 5-2.1 2.2-.7 4.9-1.6 6-2 1.1-.5 3.1-1.3 4.5-1.8 1.4-.6 3.6-1.5 5-2 5.6-2.3 7.9-3.3 15.5-6.8 4.4-2 8.7-4 9.5-4.5.8-.5 4-2.2 7-3.7s5.7-3 6-3.3c.3-.3 1.9-1.2 3.5-2 1.7-.8 3.2-1.7 3.5-2 1-1 6.5-4.1 8.3-4.7.9-.3 1.7-.9 1.7-1.4 0-.5.7-.9 1.5-.9s1.5-.5 1.5-1c0-.6.7-1 1.5-1s1.5-.5 1.5-1c0-.6.7-1 1.5-1s1.5-.5 1.5-1c0-.6.6-1 1.4-1 .8 0 1.6-.4 1.8-.8.2-.5 2.5-2.3 5.3-4.2 5-3.4 7.6-5.5 10-7.8.8-.6 1.6-1.2 2-1.2.3 0 1.6-1 2.9-2.2 1.2-1.3 3.8-3.4 5.6-4.8 10.4-7.7 42.8-40 48.1-48 .9-1.4 3.1-4 4.8-5.9 1.7-1.9 3.1-3.8 3.1-4.3 0-.4 1.3-2.1 3-3.6 1.6-1.6 3-3.4 3-4 0-.5 1.3-2.4 2.9-4.1 1.7-1.8 3.3-4.1 3.6-5.2.4-1 1.1-1.9 1.6-1.9s.9-.7.9-1.5c0-.9.5-2.1 1.1-2.8 1.9-2.2 9.4-14.2 12.3-19.7 9.4-17.6 20.6-42.1 20.6-44.7 0-.6.4-1.3.8-1.5.8-.3 9.9-26.7 11.3-32.8.4-1.9 1.3-5.3 1.8-7.5 12.8-47.4 14.4-110.9 4.1-160-.6-2.8-1.3-6.4-1.6-8-1.1-5.9-14-47.8-15.4-50-.4-.6-1.7-3.7-3-7-2.7-7.1-20.2-42.4-23-46.6-1.1-1.6-2.9-4.2-4-5.9-1.1-1.6-2-3.2-2-3.5 0-.3-1.6-2.7-3.5-5.4-1.9-2.6-3.5-5.2-3.5-5.5 0-.4-.6-1.3-1.2-2-.7-.8-2-2.4-2.8-3.6-.8-1.2-2.7-3.6-4.2-5.2-1.6-1.7-2.8-3.3-2.8-3.7 0-.3-1-1.7-2.3-3.1-1.2-1.4-3.8-4.5-5.7-7-1.9-2.5-5-6-6.7-7.9-1.8-2-3.3-4.1-3.3-4.9 0-.7-.4-1.1-.9-.7-.5.3-1.6-.4-2.4-1.6-1.9-2.7-15.3-16.2-21.3-21.4-2.5-2.2-6.3-5.6-8.4-7.5-4.9-4.5-7.9-7-8.5-7-.4 0-4-3-8.9-7.5-1.2-1.1-3.4-2.6-4.9-3.4-1.5-.8-3.6-2.2-4.6-3.3-1.1-1-2.3-1.8-2.6-1.8-.3 0-1.5-.9-2.7-2-1.2-1.1-2.8-2-3.5-2-.7 0-1.3-.5-1.3-1 0-.6-.7-1-1.5-1s-1.5-.5-1.5-1c0-.6-.7-1-1.5-1s-1.5-.5-1.5-1c0-.6-.7-1-1.5-1s-1.5-.4-1.5-.8c0-.5-1.6-1.4-3.5-2.2-1.9-.8-3.5-1.7-3.5-2.2 0-.4-.7-.8-1.5-.8s-1.5-.5-1.5-1c0-.6-.9-1-2-1s-2-.5-2-1c0-.6-.6-1-1.2-1-.7 0-2.4-.9-3.8-2s-3.3-2-4.2-2c-1 0-1.8-.5-1.8-1 0-.6-.9-1-2-1s-2-.5-2-1c0-.6-.6-1-1.4-1-1.1 0-7.6-2.9-15.8-7.1-1-.5-2.5-.9-3.3-.9-.8 0-1.5-.5-1.5-1 0-.6-1.1-1-2.5-1s-2.5-.5-2.5-1c0-.6-1.1-1-2.4-1-1.4 0-2.7-.4-3-.8-.3-.4-2.8-1.4-5.6-2.2-2.8-.8-5.3-1.8-5.6-2.2-.3-.4-1.6-.8-2.9-.8-1.3 0-2.7-.5-3-1-.3-.6-1.7-1-3-1s-2.6-.4-2.9-.9c-.3-.5-2-1.1-3.8-1.4-1.8-.3-5.1-1.1-7.3-1.7-2.2-.7-5.7-1.4-7.8-1.7-2-.3-4-.9-4.3-1.4-.3-.5-2.3-.9-4.5-.9-2.1 0-3.9-.5-3.9-1 0-.6-2.2-1-4.8-1-2.6 0-5.2-.4-5.7-.9-.6-.5-4.1-1.2-8-1.5-3.8-.4-10.8-1.2-15.5-1.7-10.3-1.3-64.3-2.3-65.4-1.2zM699 480.1V590H533v48h39v16H452v-16h39v-48H325V370l186.3-.2c102.4-.2 186.5-.2 187 0 .4.2.7 49.8.7 110.3z"/><path d="M343 479.5V574l117.3.2c64.4.1 140.3.2 168.4.2l51.3.1.2-94.8.3-94.7H343v94.5z"/></svg>