<svg version="1" xmlns="http://www.w3.org/2000/svg" width="360" height="360" viewBox="0 0 270.000000 270.000000"><path d="M117.4 13.6c-4.4.6-9 1.5-10.2 1.8-1.1.4-2.9.8-3.9 1-8.3 1.7-23.5 8.3-34.3 15C32.8 53.7 9.5 95.5 9.7 137.5c.1 26 6.9 48.5 21.2 70.5 6.7 10.3 23.9 27.7 33.7 34.2 14.9 9.9 33.2 17.3 49.9 20.2 7.6 1.3 34.2 1.6 39 .3 1.1-.2 4-.8 6.5-1.3 5.7-1 4.6-.7 11.5-2.9 3.3-1 6.5-1.9 7.2-2.1.6-.1 5.8-2.5 11.5-5.3 26.6-13.3 47.5-35.1 59.8-62.6 3-6.8 6.5-17.5 7.5-23.4.3-1.9.7-3.7.9-4 1.6-2.7 2.4-25.6 1.3-37.3-3.8-40.6-32.1-80.4-70.1-98.8-9.2-4.4-24.2-9.6-30.7-10.5-2.4-.3-5.3-.9-6.3-1.2-3.7-1.1-27.2-.9-35.2.3z"/></svg>